<?xml version="1.0" encoding="UTF-8" standalone="no"?>
<!-- Created with Inkscape (http://www.inkscape.org/) -->

<svg
   version="1.1"
   id="svg1"
   width="1221.7565"
   height="854.828"
   viewBox="0 0 1221.7565 854.828"
   sodipodi:docname="WhatsApp Image 2026-03-04 at 20.11.31.jpeg"
   inkscape:export-filename="WhatsApp Image 2026-03-04 at 20.11.31.jpeg.png"
   inkscape:export-xdpi="96"
   inkscape:export-ydpi="96"
   xmlns:inkscape="http://www.inkscape.org/namespaces/inkscape"
   xmlns:sodipodi="http://sodipodi.sourceforge.net/DTD/sodipodi-0.dtd"
   xmlns="http://www.w3.org/2000/svg"
   xmlns:svg="http://www.w3.org/2000/svg">
  <defs
     id="defs1" />
  <sodipodi:namedview
     id="namedview1"
     pagecolor="#505050"
     bordercolor="#eeeeee"
     borderopacity="1"
     inkscape:showpageshadow="0"
     inkscape:pageopacity="0"
     inkscape:pagecheckerboard="0"
     inkscape:deskcolor="#505050">
    <inkscape:page
       x="0"
       y="0"
       width="1221.7565"
       height="854.828"
       id="page2"
       margin="0"
       bleed="0" />
  </sodipodi:namedview>
  <g
     inkscape:groupmode="layer"
     inkscape:label="Image"
     id="g1"
     transform="translate(-106.81779,-268.93039)">
    <path
       style="fill:#000000"
       d="m 482,1122.8939 c 0,-0.8283 2.97999,-8.0058 6.6222,-15.95 30.5594,-66.6541 31.08542,-67.8214 37.37949,-82.9439 2.86141,-6.875 6.68823,-15.875 8.50404,-20 1.81581,-4.125 4.29214,-9.975 5.50296,-13 1.21081,-3.025 3.55268,-8.64992 5.20416,-12.49981 C 556.50666,952.1722 583.11817,879.39606 588.54392,860 c 0.69235,-2.475 2.39275,-8.325 3.77867,-13 C 595.84545,835.11666 603,807.19819 603,805.3346 c 0,-1.3251 -1.25475,-1.45836 -8.75,-0.9293 -10.87459,0.76759 -47.59803,3.24355 -68.25,4.60154 -35.37773,2.3263 -62.5497,4.67355 -93,8.03383 -15.84517,1.74857 -57.46989,7.00676 -63,7.95841 -3.025,0.52055 -11.575,1.89725 -19,3.05933 -39.75485,6.22199 -85.139,16.94342 -117,27.63977 -16.02061,5.37842 -41.03209,15.30364 -50.21676,19.92734 -2.59421,1.30596 -5.51921,2.37224 -6.5,2.36951 -2.7382,-0.008 2.04811,-3.56398 19.71676,-14.65008 32.61219,-20.46233 77.43833,-39.14221 124.5,-51.88144 61.38305,-16.61592 99.34368,-24.55551 181.5,-37.96134 11.825,-1.92954 23.975,-3.96699 27,-4.52766 9.28477,-1.72091 51.02537,-8.7881 59.5,-10.07408 14.09485,-2.13883 61.59777,-10.71251 74,-13.35608 6.6,-1.40681 17.85,-3.70861 25,-5.1151 7.15,-1.4065 17.25467,-3.65347 22.45483,-4.99326 C 721.6463,732.68139 726,732.36107 726,734.32905 c 0,0.73098 -5.175,9.09411 -11.5,18.58473 -6.325,9.49062 -11.5,17.91293 -11.5,18.71626 0,1.08957 0.82557,1.32636 3.25,0.93218 1.7875,-0.29062 9.1,-1.44326 16.25,-2.5614 17.68116,-2.76506 25.09674,-3.97901 31,-5.07478 2.75,-0.51046 13.325,-2.26378 23.5,-3.89627 48.82094,-7.83288 81.62017,-13.32006 93,-15.55853 6.875,-1.35235 17.45,-3.33516 23.5,-4.40625 6.05,-1.0711 18.65,-3.56536 28,-5.54281 9.35,-1.97745 22.175,-4.67324 28.5,-5.99064 6.325,-1.31741 17.8,-3.82857 25.5,-5.58036 7.7,-1.75179 16.02122,-3.58917 18.49159,-4.08306 6.69811,-1.33912 55.95191,-13.64525 67.93181,-16.97285 5.7329,-1.5924 11.3579,-2.88096 12.5,-2.86347 2.0693,0.0317 2.0696,0.0372 0.077,1.58052 -3.578,2.77062 -34.6556,17.92901 -48.5,23.6563 -7.425,3.07165 -22.0587,8.73062 -32.51932,12.57549 C 976.42392,744.11342 965.40234,747.60677 922,760.50034 883.78097,771.85409 804.94169,789.93655 758,798.11513 727.13406,803.49285 686.65701,810 684.07133,810 c -2.72455,0 -3.43725,1.00413 -11.88863,16.75 -26.84311,50.01171 -30.41254,58.97749 -26.8625,67.47393 3.81622,9.13348 14.79062,9.59959 50.54335,2.1467 42.51347,-8.86222 56.87845,-11.69157 73.13645,-14.40511 9.625,-1.60646 17.86406,-2.93089 18.30902,-2.94318 1.99718,-0.0552 -0.69097,1.94543 -4.07295,3.03118 -8.15881,2.61931 -48.42443,19.08861 -59.5442,24.35455 C 717.19741,909.48363 711.76946,912 711.62978,912 c -0.71766,0 -28.62966,15.48725 -38.52085,21.37367 -19.81247,11.79075 -41.88264,27.79182 -61.24032,44.39978 -14.38416,12.34091 -48.4774,46.21615 -61.62051,61.22655 -5.53819,6.325 -10.89713,12.4156 -11.90876,13.5348 -1.01164,1.1191 -3.40815,4.0441 -5.32559,6.5 -5.34253,6.8427 -6.27772,8.002 -9.57771,11.872 -4.91212,5.7606 -19.81596,25.103 -23.95814,31.0932 -3.11863,4.51 -13.25921,17.5763 -16.64706,21.45 -0.49387,0.5647 -0.83084,0.3392 -0.83084,-0.5561 z M 768,835.04477 c -39.60894,-0.83895 -53.099,-1.71159 -49.15205,-3.17954 1.29137,-0.48029 14.79137,-2.21716 30,-3.85972 47.27955,-5.10629 87.80899,-10.34165 124.15205,-16.03723 36.84084,-5.7736 63.05846,-10.02769 67.5,-10.9526 2.75,-0.57266 12.65,-2.40078 22,-4.0625 9.35,-1.66171 21.275,-3.91597 26.5,-5.00947 5.225,-1.0935 17.375,-3.58019 27,-5.52599 20.5951,-4.16352 49.4026,-10.67001 60,-13.55165 58.1087,-15.80092 87.3454,-25.64276 113,-38.03879 31.3363,-15.14135 43.7248,-27.90021 39.0441,-40.21137 -2.5849,-6.79868 -14.7849,-13.78166 -39.4605,-22.58607 -18.0068,-6.42496 -18.9262,-6.84215 -25.5165,-11.57783 -11.7504,-8.44358 -15.9428,-20.7573 -12.5654,-36.90623 4.9948,-23.88222 25.132,-48.82473 54.2668,-67.2163 28.4494,-17.95888 55.7576,-27.5229 90.9016,-31.83592 14.5541,-1.78615 26.2987,-1.92054 29.7662,-0.34062 5.3887,2.45527 3.7748,11.46878 -4.3595,24.34706 -2.0843,3.3 -7.0717,11.625 -11.0829,18.5 -9.3475,16.02077 -25.168,40.78486 -30.9776,48.48959 -9.2137,12.21931 -22.2636,23.11598 -35.8879,29.96642 -2.9543,1.48548 -4.9793,3.05445 -4.5,3.4866 0.4794,0.43215 5.3716,1.79993 10.8716,3.03951 10.8337,2.44168 28.2954,8.3473 35.5,12.00621 11.2783,5.72779 20.3285,13.5613 24.5964,21.28968 2.455,4.44562 2.8852,6.33921 2.8937,12.73656 0.01,6.4676 -0.439,8.41816 -3.2122,14 -5.9744,12.02526 -22.1808,26.22104 -43.2779,37.90861 -20.7937,11.51949 -33.6621,17.26539 -65,29.02333 -18.7844,7.04789 -54.9996,18.10629 -78.5,23.97019 -13.6938,3.41692 -52.5359,11.75482 -62.5,13.41635 -34.3942,5.73523 -69.98993,10.63269 -88,12.10752 -4.125,0.33779 -14.475,1.27255 -23,2.07724 -43.40056,4.09663 -115.81163,5.90769 -181,4.52696 z m 443.1008,-195.19809 c 9.0587,-3.0735 27.5337,-18.75312 34.8355,-29.56468 1.4101,-2.08774 3.7856,-5.38982 5.2791,-7.33796 4.3745,-5.7063 12.4677,-23.88462 13.8428,-31.09267 1.4419,-7.55785 0.2894,-12.28887 -3.2685,-13.41812 -11.7131,-3.71758 -35.2511,8.72427 -54.4413,28.77692 -9.3828,9.80442 -12.576,14.49964 -15.9409,23.43927 -2.7171,7.2187 -3.0491,12.87934 -1.0376,17.69338 1.7738,4.2453 8.8007,10.23237 13.4685,11.47538 2.0139,0.5363 3.7069,1.0216 3.7624,1.07845 0.055,0.0568 1.6304,-0.41564 3.5,-1.04997 z M 206.96786,798.53873 c 0.66701,-0.8037 2.18461,-1.75496 3.37245,-2.11391 6.36575,-1.92364 50.94489,-23.40955 66.72764,-32.16087 34.34555,-19.04415 48.07097,-29.45689 64.9366,-49.26395 18.94267,-22.24633 42.43345,-66.80205 60.63061,-115 7.06953,-18.72471 7.36483,-24.7889 1.36352,-28.00071 -0.9162,-0.49033 -6.90582,-1.78787 -13.31027,-2.88341 -6.40445,-1.09555 -12.44185,-2.43816 -13.41644,-2.98357 -1.56922,-0.87821 -1.42871,-1.12504 1.22803,-2.15728 1.65,-0.64108 11.325,-3.5445 21.5,-6.45205 10.175,-2.90754 28.175,-8.48653 40,-12.39775 11.825,-3.91121 22.625,-7.22694 24,-7.36827 2.14363,-0.22033 2.45083,0.0994 2.1551,2.24304 -0.18969,1.375 -1.70055,5.65 -3.35746,9.5 -1.65691,3.85 -5.84832,13.75 -9.31426,22 -7.92647,18.86747 -13.16568,31.1399 -14.94182,35 -0.75921,1.65 -2.72598,6.375 -4.3706,10.5 -1.64462,4.125 -5.95588,14.16156 -9.58059,22.30347 -3.6247,8.1419 -6.59037,14.9776 -6.59037,15.19044 0,1.44133 -10.90509,22.85687 -16.03812,31.49584 -5.89572,9.92259 -17.61138,27.9267 -18.87759,29.01025 -0.32136,0.275 -2.81064,3.2 -5.53174,6.5 -14.13452,17.14157 -31.01234,30.42599 -52.05255,40.97021 -16.79614,8.41733 -28.9374,12.61695 -68,23.52096 -17.6,4.9129 -35.825,10.06526 -40.5,11.4497 -10.13163,3.00035 -11.75886,3.17842 -10.03214,1.09786 z M 106.90311,793.25 c -0.52625,-4.07348 1.46537,-21.5035 3.68501,-32.25 1.77941,-8.61511 8.57684,-31.35304 11.35997,-38 1.0363,-2.475 3.77174,-9 6.07876,-14.5 3.68792,-8.79214 8.79606,-19.01224 19.24277,-38.5 3.98564,-7.435 16.98294,-29.37707 17.77038,-30 0.34763,-0.275 2.34305,-3.2 4.43427,-6.5 15.02393,-23.70808 39.8602,-50.69426 55.51164,-60.3169 13.62248,-8.37522 39.18009,-17.10428 50.26409,-17.16743 3.54502,-0.0202 3.46493,0.76041 -0.62802,6.12079 -17.05502,22.33628 -28.42425,49.08259 -30.54752,71.86354 -0.67237,7.21404 -0.12116,11.5824 1.25341,9.93333 0.19866,-0.23833 3.01866,-4.03333 6.26667,-8.43333 15.11842,-20.48059 27.24258,-34.02842 65.3663,-73.04181 20.9923,-21.48219 31.08728,-32.30645 44.10811,-47.29459 3.5054,-4.03503 6.53435,-6.85371 6.731,-6.26374 0.19666,0.58996 -0.60413,3.66635 -1.77954,6.8364 -2.01901,5.44528 -8.80131,24.45819 -16.68159,46.76374 -7.04488,19.9409 -16.22125,47.23082 -19.33466,57.5 -1.75086,5.775 -4.24991,13.875 -5.55343,18 C 318.10923,658.06766 312,687.23965 312,697.45307 c 0,10.76857 3.24048,12.72722 14.17967,8.57066 2.86062,-1.08695 5.33536,-1.84203 5.49943,-1.67797 0.94653,0.94654 -7.11198,11.27715 -14.54273,18.64309 -12.19405,12.08767 -19.04713,17.27453 -28.41801,21.50859 -23.40009,10.57291 -31.55227,-4.76835 -22.58267,-42.49744 2.7408,-11.5287 12.2305,-41.16503 18.09158,-56.5 8.45336,-22.11742 11.70086,-31.9819 10.65112,-32.35337 -3.39984,-1.20308 -50.79154,59.5685 -60.58923,77.69511 -0.69616,1.28796 -3.46765,6.01296 -6.15886,10.5 -5.94609,9.91386 -11.9201,21.27825 -15.04024,28.61113 -2.09918,4.93343 -2.44543,5.28162 -3.63475,3.65513 -2.52547,-3.45379 -9.52678,-24.97707 -10.57553,-32.51107 -1.45225,-10.43276 0.64549,-29.04894 4.96901,-44.09693 2.40317,-8.36421 8.78742,-28.9769 9.67888,-31.25 1.50937,-3.84871 -1.73485,-1.38427 -7.23508,5.49602 -14.15802,17.71044 -26.77891,40.2826 -37.04495,66.25398 -6.7496,17.07539 -9.65929,28.22916 -9.71151,37.22727 -0.0315,5.42231 0.30498,6.56838 2.60272,8.86612 2.46951,2.46952 3.49559,2.69815 15.9903,3.56303 7.34329,0.5083 13.72752,1.30025 14.18717,1.7599 0.45965,0.45965 -12.21319,7.37606 -28.16187,15.36979 -15.94867,7.99373 -32.07039,16.31658 -35.82602,18.49522 C 118.58431,788.43387 108.29939,794 107.5989,794 c -0.32939,0 -0.6425,-0.3375 -0.69579,-0.75 z M 458,752.34439 c 0,-1.2944 13.84065,-18.18929 30.84799,-37.65526 2.3914,-2.73711 7.42874,-9.07439 11.19409,-14.08284 16.30212,-21.68415 22.11926,-29.12709 23.00898,-29.43962 0.55547,-0.19512 0.94894,3.61334 0.94894,9.1849 0,14.88345 1.83501,17.85634 11.3901,18.45304 16.69601,1.04262 50.21292,-14.4011 56.14343,-25.86945 1.71167,-3.31001 1.9049,-8.24744 0.43056,-11.00225 -1.55987,-2.91465 -9.85659,-6.73271 -25.97925,-11.95537 C 542.59468,642.4007 536,636.70426 536,624.07682 c 0,-13.20171 18.18528,-32.49533 42,-44.55978 17.83787,-9.0366 45.68447,-17.70192 66.5,-20.69352 10.01206,-1.43892 48.8603,-1.80585 50.16667,-0.47382 1.37252,1.39947 -6.6315,7.73851 -26.43093,20.93281 -24.44877,16.29263 -22.78686,15.52173 -26.26934,12.1853 -1.55657,-1.49129 -4.5916,-3.03355 -6.7445,-3.42723 -13.00152,-2.3775 -39.1048,6.90095 -47.50703,16.88644 -3.62338,4.30613 -4.32292,7.49603 -2.31569,10.55946 2.20042,3.35826 5.66067,4.9549 15.10082,6.96788 34.80895,7.42254 40.19796,9.25516 45.95529,15.62783 3.91285,4.33105 5.0491,8.74179 4.24901,16.49389 -1.27302,12.33442 -14.22085,27.08685 -35.7043,40.68058 -24.75592,15.6644 -78.18392,36.83845 -129.40343,51.28389 C 464.02903,752.62324 458,753.89121 458,752.34439 Z m -78.42227,-12.21862 c -0.29966,-0.48486 1.36026,-3.04579 3.68872,-5.69095 2.32845,-2.64517 5.80855,-6.9442 7.73355,-9.55341 1.925,-2.60921 6.98809,-9.17945 11.25131,-14.60054 l 7.75131,-9.85653 20.24869,-3.28447 C 441.38809,695.33341 457.7,692.57241 466.5,691.0043 c 17.91662,-3.19262 27.5,-4.43511 27.5,-3.56537 0,0.32056 -4.6125,6.3296 -10.25,13.35341 -5.6375,7.02382 -12.5,15.77618 -15.25,19.4497 -5.93265,7.92498 -1.11773,6.53791 -49.5,14.25984 -18.975,3.02845 -35.48492,5.7311 -36.68871,6.00587 -1.2038,0.27478 -2.4339,0.10289 -2.73356,-0.38198 z m 435.32682,-13.92822 c 1.3225,-0.93365 5.5975,-3.43278 9.5,-5.55361 45.43421,-24.69145 60.95683,-38.41717 107.36986,-94.94075 7.57982,-9.231 21.95518,-25.26806 28.33444,-31.60972 13.36239,-13.28363 37.21895,-32.62334 57.89115,-46.93039 22.2565,-15.40352 35.2307,-24.69753 47.342,-33.91308 7.4089,-5.6375 13.7379,-10.25 14.0644,-10.25 1.3448,0 0.3369,2.27133 -4.5156,10.17659 -10.4514,17.02651 -30.5803,54.62385 -37.3821,69.82341 -2.092,4.675 -5.0307,11.20008 -6.5303,14.50018 -1.4996,3.3001 -5.2092,12.7501 -8.2434,21 -12.3954,33.7027 -14.1673,43.23911 -11.5146,61.97423 0.2523,1.7813 -1.1386,2.25134 -14.2204,4.80595 -11.54421,2.25435 -36.79434,7.72579 -52.75,11.43039 -4.1624,0.96643 -2.28128,-1.18088 4.93482,-5.63314 10.78399,-6.6536 17.40292,-14.00918 23.57114,-26.19448 9.46606,-18.7002 13.19568,-30.92024 9.83105,-32.21137 -0.77714,-0.29821 -7.63964,0.54156 -15.25,1.86617 -7.61035,1.3246 -14.10566,2.42046 -14.434,2.43522 -1.14555,0.0515 -4.49465,3.58726 -11.39199,12.02685 -3.82069,4.675 -10.05648,12.1 -13.85732,16.5 -3.80084,4.4 -8.42781,10.24399 -10.28216,12.98665 -6.12856,9.06439 -3.87309,14.77209 7.09764,17.96137 3.33549,0.96965 5.42233,2.05801 4.91413,2.56289 -0.48582,0.48264 -4.70831,1.75022 -9.38331,2.81684 -22.83575,5.21005 -41.34464,9.71676 -72.20895,17.58205 -18.53992,4.72461 -34.06492,8.5666 -34.5,8.53775 -0.43508,-0.0289 0.291,-0.81635 1.6135,-1.75 z m 172.22632,-108.3492 c 4.05763,-1.74554 5.10026,-2.82682 7.41491,-7.68975 1.48135,-3.11223 3.25945,-7.24649 3.95133,-9.18723 0.69188,-1.94075 3.13829,-7.26848 5.43649,-11.8394 2.2983,-4.57092 4.0409,-8.97211 3.8725,-9.78041 -0.6338,-3.04313 -16.77154,10.74175 -31.68848,27.0684 -8.78967,9.62033 -10.52945,12.10467 -9.5672,13.66162 1.07171,1.73407 14.82821,0.24132 20.58045,-2.23323 z M 674.55,725.1429 c 0.5225,-0.47141 4.55,-2.31207 8.95,-4.09036 9.85399,-3.98256 29.0992,-14.03123 36.52301,-19.07007 5.38388,-3.65427 18.05797,-15.46345 23.05584,-21.48247 4.83302,-5.82049 23.6062,-31.03102 24.86917,-33.39685 0.84347,-1.58001 1.45961,-8.75855 1.80794,-21.06387 0.45125,-15.94094 0.27748,-19.42254 -1.18993,-23.84047 C 766.26494,595.27086 763.23674,593 756.2994,593 c -5.91255,0 -8.88562,1.1384 -11.47459,4.39368 -5.09431,6.40538 -9.89828,13.18463 -15.66516,22.10632 -3.55513,5.5 -9.85639,15.175 -14.0028,21.5 -7.49616,11.43478 -19.55541,31.95435 -21.91929,37.29705 -3.35765,7.58876 -0.56868,15.05555 7.18269,19.22994 1.96886,1.0603 3.57975,2.24358 3.57975,2.62952 0,0.82005 -4.84618,1.81947 -26,5.36194 -15.01357,2.51421 -42.63548,8.22468 -59.94437,12.39272 -4.6444,1.11839 -8.6944,1.78056 -9,1.47149 -0.77608,-0.78488 4.0011,-4.59257 13.84054,-11.03169 7.76952,-5.08453 16.75737,-13.28198 26.69889,-24.35097 4.57575,-5.09468 37.23816,-53.9278 48.11842,-71.94117 3.38947,-5.61162 4.14813,-9.40829 2.12929,-10.656 -4.28508,-2.64833 -18.35165,1.37488 -41.10591,11.75679 -4.81973,2.19906 -9.20552,3.85026 -9.74621,3.66933 -0.54068,-0.18092 5.5247,-7.13638 13.47864,-15.45656 15.1479,-15.84542 18.72352,-18.34656 26.30095,-18.39743 2.05137,-0.0138 12.50476,-1.38489 23.22976,-3.04692 10.725,-1.66204 26.925,-3.8958 36,-4.96393 9.075,-1.06812 21.225,-2.6172 27,-3.4424 5.775,-0.8252 15.9,-2.17586 22.5,-3.00147 6.6,-0.8256 16.5,-2.17898 22,-3.00749 5.5,-0.82852 14.725,-2.19388 20.5,-3.03414 5.775,-0.84026 14.02964,-2.11868 18.34365,-2.84093 6.89198,-1.15385 7.9142,-1.12931 8.42518,0.20228 0.93171,2.428 -3.21166,8.48642 -7.28854,10.65727 -2.06294,1.09847 -6.59473,5.06892 -10.07063,8.82321 -5.94232,6.41826 -9.55901,11.87049 -23.94916,36.10382 -3.24125,5.45834 -8.24755,12.93324 -11.12511,16.61088 -10.08927,12.89453 -35.92005,50.72657 -37.94684,55.57735 -1.31308,3.14264 -1.26196,3.63971 0.63859,6.21035 l 2.0659,2.79428 -1.96827,4.5918 c -2.2438,5.23458 1.24369,4.02751 -31.12477,10.77272 -10.175,2.12035 -21.65,4.59325 -25.5,5.49534 -7.98271,1.87041 -11.85593,2.65303 -30,6.06172 -13.95472,2.62164 -17.46955,2.97515 -15.95,1.6042 z M 797.62603,614.29178 c 5.13331,-7.59078 8.32332,-16.67803 9.05401,-25.79178 0.47814,-5.96366 0.27436,-7.35282 -1.37641,-9.38312 -1.58874,-1.95401 -2.29633,-2.19115 -3.9297,-1.317 -2.15583,1.15376 -11.33079,10.31933 -12.42827,12.41554 -0.3699,0.70652 -0.30711,4.43458 0.13954,8.28458 0.44666,3.85 0.83521,10.1875 0.86345,14.08333 0.0772,10.64519 1.43024,10.94629 7.67738,1.70845 z M 782,702.46482 c 0,-2.84293 3.03889,-6.20455 8.85303,-9.79324 11.19653,-6.91089 17.54411,-14.44683 33.83687,-40.17158 27.18952,-42.92974 40.39226,-64.51467 44.01483,-71.9591 2.98382,-6.1318 3.35309,-7.71008 2.85991,-12.22362 -0.97092,-8.88579 -0.25114,-9.64482 11.0836,-11.68816 5.41847,-0.9768 18.94877,-3.57628 30.06734,-5.77662 11.11857,-2.20034 21.2321,-3.85479 22.4745,-3.67656 1.89056,0.27122 0.97682,1.28777 -5.60359,6.23403 -9.29094,6.98367 -18.07726,15.51839 -21.71177,21.09003 -8.62334,13.21943 -16.50494,25.67399 -23.92793,37.81107 -4.64573,7.59609 -10.98357,17.76405 -14.08407,22.59545 -9.19567,14.32929 -18.99724,32.15447 -18.65988,33.93493 0.43941,2.31904 5.00403,2.61596 8.98076,0.58418 4.71704,-2.41002 20.49295,-13.04404 25.8164,-17.40199 2.475,-2.02612 5.11071,-4.04166 5.85713,-4.47897 2.3459,-1.37443 0.47921,2.63283 -7.05251,15.13975 -3.89817,6.47316 -8.58532,14.75374 -10.4159,18.40129 l -3.32833,6.63191 -6.31407,0.6469 c -6.29076,0.64451 -30.20396,5.41237 -40.71696,8.11823 -8.71962,2.24428 -36.24241,7.50873 -39.27936,7.5132 -1.80755,0.003 -2.75,-0.52207 -2.75,-1.53113 z M 1018.0258,677.75 c 0.074,-12.26603 9.796,-29.39955 25.9742,-45.77798 12.3183,-12.47078 17.955,-16.70673 54.0759,-40.63804 12.4167,-8.22651 25.1168,-16.95455 28.2225,-19.39564 5.3066,-4.17117 7.8451,-8.13652 6.2318,-9.73491 -1.2583,-1.24679 -22.0422,-0.32165 -30.082,1.33903 -4.288,0.88569 -13.6421,3.60178 -20.7871,6.03575 -7.145,2.43397 -13.2445,4.17176 -13.5545,3.86177 -0.3099,-0.31 2.3517,-3.27884 5.9149,-6.59743 14.3529,-13.36767 18.9633,-17.58136 24.9935,-22.84255 3.4671,-3.025 7.1225,-6.21944 8.123,-7.09875 1.3309,-1.16957 4.9792,-1.78148 13.5906,-2.27945 6.4743,-0.37438 22.7964,-1.38048 36.2714,-2.23578 13.475,-0.85529 29.1747,-1.79538 34.8882,-2.08908 l 10.3881,-0.53401 -0.7083,2.86854 c -0.983,3.98062 -10.0769,15.62452 -18.261,23.38131 -10.9314,10.36074 -15.6286,14.09488 -30.807,24.49041 -55.4631,37.98618 -67.7044,47.44655 -76.1583,58.85682 -4.4756,6.04075 -5.6248,10.9569 -3.1417,13.43999 2.8572,2.85722 25.7258,0.35429 33.4626,-3.66245 2.1106,-1.09573 8.9981,-6.29994 15.3057,-11.5649 6.3076,-5.26496 11.8201,-9.57265 12.25,-9.57265 1.073,0 1.0062,0.80545 -0.7621,9.18462 -2.1409,10.14532 -2.0516,19.94401 0.2239,24.55687 1.0884,2.20627 4.03,5.20842 7.3181,7.46856 3.0241,2.07862 5.6307,4.17665 5.7926,4.66228 0.3602,1.08063 -11.5018,1.8398 -49.2908,3.15462 -27.9208,0.97147 -44.6946,1.98004 -66,3.96843 -14.6277,1.36516 -13.5038,1.63586 -13.4742,-3.24538 z M 703,574.6653 c 0,-0.73409 1.38919,-2.57248 3.08709,-4.08531 6.65287,-5.92774 8.82659,-16.46352 4.66291,-22.60066 -3.12873,-4.61165 -7.36788,-5.81603 -20.75,-5.89526 -13.7977,-0.0817 -25.78644,1.3349 -62.5,7.38503 -26.74989,4.40819 -33.25158,5.38203 -53,7.93842 -27.40119,3.54703 -30.5,3.83649 -30.5,2.84902 0,-0.48806 6.1875,-2.6148 13.75,-4.7261 39.88488,-11.13504 75.45659,-25.6084 102.52363,-41.71464 5.37549,-3.19869 9.96446,-5.8158 10.1977,-5.8158 0.23324,0 4.83511,-2.77693 10.22637,-6.17095 C 743.07592,462.5594 789.26199,410.63526 852.6622,308.5 c 9.90092,-15.95 19.53717,-31.59541 21.41388,-34.76757 1.87671,-3.17217 3.57159,-5.28943 3.76638,-4.70504 0.1948,0.5844 -2.36405,9.02981 -5.68633,18.76758 -20.02995,58.70875 -29.00842,96.40295 -30.65657,128.70503 -1.36697,26.79136 4.76139,40.32652 21.93121,48.43746 9.67101,4.56854 16.07071,5.51179 37.06923,5.46365 16.13101,-0.037 22.32199,-0.53583 41,-3.3036 12.1,-1.79302 27.36871,-4.34226 33.93047,-5.66497 6.56176,-1.32271 12.13667,-2.19874 12.38869,-1.94672 0.58029,0.58029 -0.23205,0.89327 -30.31916,11.68139 -38.60657,13.84288 -62.79257,24.86114 -129.5,58.99546 -35.53799,18.18485 -70.79944,32.2815 -105.82997,42.30816 C 709.075,576.21898 703,576.91441 703,574.6653 Z"
       id="path1" />
  </g>
</svg>
